<svg xmlns="http://www.w3.org/2000/svg" xmlns:xlink="http://www.w3.org/1999/xlink" width="500" zoomAndPan="magnify" viewBox="0 0 375 374.999991" height="500" preserveAspectRatio="xMidYMid meet" version="1.0"><defs><g/><clipPath id="e5d7695a95"><rect x="0" width="283" y="0" height="375"/></clipPath></defs><g transform="matrix(1, 0, 0, 1, 44, 0)"><g clip-path="url(#e5d7695a95)"><g fill="#ffffff" fill-opacity="1"><g transform="translate(0.727782, 337.593274)"><g><path d="M 229.421875 -102.765625 C 240.160156 -100.171875 248.675781 -95.171875 254.96875 -87.765625 C 261.269531 -80.359375 264.421875 -72.210938 264.421875 -63.328125 C 264.785156 -54.804688 261.820312 -46.75 255.53125 -39.15625 C 249.238281 -31.570312 240.90625 -26.113281 230.53125 -22.78125 C 227.9375 -21.664062 225.25 -20.738281 222.46875 -20 C 219.695312 -19.257812 216.832031 -18.703125 213.875 -18.328125 C 194.613281 -16.847656 175.257812 -15.273438 155.8125 -13.609375 C 136.375 -11.941406 116.84375 -10.550781 97.21875 -9.4375 C 91.65625 -9.070312 86.003906 -9.441406 80.265625 -10.546875 C 74.523438 -11.660156 69.0625 -13.144531 63.875 -15 C 49.8125 -19.445312 38.984375 -26.757812 31.390625 -36.9375 C 23.796875 -47.125 20.179688 -58.507812 20.546875 -71.09375 C 20.921875 -83.6875 25.738281 -95.726562 35 -107.21875 C 44.257812 -118.320312 54.257812 -128.6875 65 -138.3125 C 75.738281 -147.945312 86.289062 -157.945312 96.65625 -168.3125 C 102.945312 -174.238281 109.148438 -180.253906 115.265625 -186.359375 C 121.378906 -192.472656 127.582031 -198.492188 133.875 -204.421875 C 133.132812 -205.535156 132.394531 -207.203125 131.65625 -209.421875 C 125.351562 -209.421875 119.144531 -209.421875 113.03125 -209.421875 C 106.925781 -209.421875 100.726562 -209.609375 94.4375 -209.984375 C 88.882812 -210.347656 83.144531 -210.625 77.21875 -210.8125 C 71.289062 -211 66.101562 -212.390625 61.65625 -214.984375 C 56.476562 -218.316406 51.476562 -222.570312 46.65625 -227.75 C 41.84375 -232.9375 39.066406 -238.304688 38.328125 -243.859375 C 37.585938 -249.046875 38.789062 -254.878906 41.9375 -261.359375 C 45.082031 -267.835938 48.691406 -273.113281 52.765625 -277.1875 C 57.210938 -281.269531 62.582031 -284.601562 68.875 -287.1875 C 75.175781 -289.78125 81.289062 -291.078125 87.21875 -291.078125 C 103.507812 -291.816406 119.894531 -292.28125 136.375 -292.46875 C 152.851562 -292.65625 169.054688 -291.265625 184.984375 -288.296875 C 200.535156 -285.335938 212.941406 -278.488281 222.203125 -267.75 C 231.460938 -257.007812 236.738281 -244.414062 238.03125 -229.96875 C 239.320312 -215.53125 235.894531 -201.460938 227.75 -187.765625 C 224.050781 -180.722656 219.789062 -174.050781 214.96875 -167.75 C 210.15625 -161.457031 205.34375 -155.164062 200.53125 -148.875 C 195.71875 -142.945312 190.625 -136.832031 185.25 -130.53125 C 179.882812 -124.238281 174.054688 -117.207031 167.765625 -109.4375 C 172.578125 -109.0625 176.738281 -108.78125 180.25 -108.59375 C 183.769531 -108.414062 187.015625 -108.140625 189.984375 -107.765625 C 196.648438 -107.023438 203.316406 -106.46875 209.984375 -106.09375 C 216.648438 -105.726562 223.128906 -104.617188 229.421875 -102.765625 Z M 229.421875 -102.765625 "/></g></g></g></g></g></svg>