<?xml version="1.0"?><svg version="1.2" baseProfile="tiny-ps" viewBox="0 0 300 300" xmlns="http://www.w3.org/2000/svg" xmlns:xlink="http://www.w3.org/1999/xlink"><title>rezerva.es</title><g><g fill="#fff" transform="matrix(.1 0 0 -.1 0 300)"><path d="M0 1500V0h3000v3000H0V1500z"/></g><g fill="#d4f6eb" transform="matrix(.1 0 0 -.1 0 300)"><path d="m39 2961-39-39V78l39-39L78 0h2844l39 39 39 39v2844l-39 39-39 39H78l-39-39zm1560-822 114-10 51-23 51-23 34-34 34-34 25-53 24-54-4-87-4-87-33-60c-38-67-120-176-218-291l-66-78 29-6c16-4 54-7 86-8 31 0 91-8 134-16l78-15 38-25 39-26 19-32c11-18 23-47 26-65l7-34-11-37-12-37-32-33c-72-73-117-83-497-111l-273-20-61 16c-114 29-182 80-220 163l-20 45 1 54v53l28 57 27 57 234 230c128 127 233 235 233 241v11l-137 6-138 6-37 11-37 11-45 50-46 51v84l30 47 29 46 42 27 42 26 71 8c108 11 239 11 365-1z"/></g><g fill="#9dead3" transform="matrix(.1 0 0 -.1 0 300)"><path d="m63 2980-32-19-16-30-15-30V95l20-32 19-32 30-16L99 0h2802l30 15 30 16 19 32 20 32v2806l-15 30-16 30-32 19-32 20H95l-32-20zm1584-841 78-12 52-24 52-24 32-36c17-21 41-57 53-82l21-46-1-75v-75l-22-55-22-55-71-95c-40-52-100-128-133-168-34-40-62-76-64-80l-2-8 122-12c68-7 142-17 165-23l42-11 41-35c22-19 47-48 55-64l15-28v-86l-23-40-22-40-46-30-45-31-55-12c-79-17-402-43-559-45l-135-2-59 24-60 24-47 47-48 48-16 57-17 58 6 40c4 23 16 62 27 87l19 45 240 235 240 235-8 11-7 11-141 5-141 4-47 28-46 27-27 40-27 41 1 33c1 42 26 94 64 133l31 31 51 20 52 20h177l177 1 78-11z"/></g><g fill="#5bdbb5" transform="matrix(.1 0 0 -.1 0 300)"><path d="m71 2982-34-19-19-34-18-34V105l18-34 19-34 34-19 34-18h2790l34 18 34 19 19 34 18 34v2790l-18 34-19 34-34 19-34 18H105l-34-18zm1592-843 72-11 46-24 46-23 42-47 41-47 16-55 16-55-4-61-4-61-27-59c-31-67-97-160-209-293-43-51-78-94-78-97 0-4 21-6 48-6 26 0 88-5 137-11l90-10 53-25 52-26 24-31c13-18 29-50 35-72l11-39-11-41-11-40-47-46-47-45-60-17-59-16-175-17-175-16-160-2-160-1-62 29-63 29-38 41-39 42-18 47-18 47 6 55 6 55 28 52 28 52 85 86c47 47 149 148 228 224l142 139v27h-245l-39 9-38 9-37 30c-20 16-46 44-58 62l-23 33v53l26 52 26 53 32 24c18 14 50 31 72 39l39 15h193l193 1 72-11z"/></g><g fill="#18cb97" transform="matrix(.1 0 0 -.1 0 300)"><path d="M81 2982c-19-9-44-30-55-45l-21-28-3-1397L0 115l17-34c10-19 31-44 46-55L91 5h2818l28 21c15 11 36 36 46 55l17 34-2 1397-3 1397-21 28c-11 15-36 36-55 45l-34 18H115l-34-18zm1604-842c68-13 104-30 157-72l37-29 32-65 32-64v-68l1-67-25-61-25-61-61-84c-34-46-93-122-133-168l-72-85 19-7c10-3 62-9 116-13l98-7 50-15 50-15 39-35 39-35 17-45 17-44-6-36-6-37-25-38-26-38-43-25-44-26-64-14c-82-19-278-36-489-43l-165-6-56 17-56 16-49 32-48 33-30 49-30 49-4 68-4 67 26 59 26 58 237 231 236 231-7 11-7 12h-271l-34 16c-19 9-52 34-74 56l-39 40-7 35-7 35 12 38 11 37 40 46 40 46 48 15c72 23 93 25 287 21l180-3 60-12z"/></g></g></svg>